<svg width="180" height="39" viewBox="0 0 180 39" fill="none" xmlns="http://www.w3.org/2000/svg">
<g clip-path="url(#clip0)">
<path d="M114.77 24.8315V22.0658H116.292C115.534 19.8318 115.119 18.5998 115.049 18.3728C114.953 18.5805 114.86 18.7797 114.77 18.9706V15.5669C114.953 15.5678 115.114 15.5683 115.253 15.5683C116.175 15.5683 117.023 15.5617 117.808 15.5488L119.238 19.5109L122.143 27.127L122.711 28.5147C121.582 28.5017 120.898 28.4952 120.657 28.4952C120.109 28.4952 119.304 28.5017 118.239 28.5147C117.952 27.4707 117.537 26.2419 116.997 24.8315H114.77ZM123.513 28.5147L123.757 26.5953L124.361 19.9356L124.665 15.5488C125.868 15.5617 126.81 15.5683 127.494 15.5683C128.062 15.5683 128.93 15.5617 130.1 15.5488C130.183 16.0935 130.256 16.5052 130.313 16.7873C130.373 17.0694 130.517 17.6206 130.751 18.4409C130.981 19.2612 131.168 19.9712 131.309 20.5679C131.449 21.1677 131.659 22.1922 131.94 23.6416C132.224 22.6462 132.488 21.7934 132.721 21.0769C132.955 20.3603 133.249 19.5465 133.603 18.6354C133.954 17.7243 134.178 17.1278 134.271 16.8457C134.368 16.5636 134.495 16.1324 134.659 15.5488C135.637 15.5617 136.596 15.5683 137.534 15.5683C138.176 15.5683 139.061 15.5617 140.196 15.5488C140.073 17.6822 139.993 19.5173 139.953 21.0477C139.869 24.05 139.826 26.1154 139.826 27.2405C139.826 27.4772 139.832 27.9019 139.846 28.5147C138.984 28.5017 138.38 28.4952 138.035 28.4952C137.531 28.4952 136.917 28.5017 136.185 28.5147C136.238 27.944 136.302 26.5887 136.379 24.4456C136.459 22.3024 136.496 20.931 136.496 20.3376C136.496 20.0751 136.489 19.7151 136.479 19.2548L135.196 23.1195L133.356 28.5147C132.508 28.5017 131.923 28.4952 131.606 28.4952C131.202 28.4952 130.58 28.5017 129.745 28.5147L128.543 23.2914L127.838 20.5062C127.812 20.3992 127.782 20.2663 127.748 20.1074C127.718 19.9485 127.665 19.6697 127.595 19.2709L127.347 21.9037L127.027 27.2988L126.997 28.5147C126.095 28.5017 125.524 28.4952 125.273 28.4952C124.936 28.4952 124.348 28.5017 123.513 28.5147ZM114.77 15.5669V18.9706C114.458 19.6352 114.185 20.1985 113.954 20.6619L113.249 22.0658H114.77V24.8315H112.063C111.495 25.9468 110.908 27.1724 110.3 28.5147C109.087 28.5017 108.346 28.4952 108.072 28.4952C107.759 28.4952 107.326 28.4978 106.774 28.503V26.6195L111.546 17.8962L112.083 16.8586C112.24 16.5571 112.457 16.1195 112.738 15.5488C113.584 15.5583 114.261 15.5643 114.77 15.5669ZM106.774 18.4101C107.083 18.4227 107.408 18.4373 107.746 18.4538C107.746 18.2885 107.75 18.0421 107.76 17.7147C107.77 17.3905 107.787 16.9786 107.813 16.4793L107.874 15.5488L106.774 15.5571V18.4101ZM58.4574 20.9536C59.3525 20.9666 60.2042 20.9731 61.0125 20.9731C62.3953 20.9731 63.4808 20.9666 64.2624 20.9536C64.1755 21.8226 64.0887 23.0482 64.0019 24.6401C63.9117 26.2289 63.8583 27.4286 63.8382 28.2391C63.09 28.3721 62.4687 28.4694 61.9744 28.5277C61.4834 28.5893 60.8889 28.6412 60.1975 28.6898C59.5061 28.7385 58.8915 28.7612 58.3504 28.7612C57.462 28.7612 56.5903 28.6931 55.7352 28.5536C54.8801 28.4142 54.1153 28.1873 53.4406 27.8793C52.7659 27.568 52.2047 27.1465 51.7539 26.6147C51.303 26.083 50.9556 25.454 50.7117 24.7245C50.4679 23.995 50.3444 23.2427 50.3444 22.4646C50.3444 21.1774 50.675 19.9842 51.333 18.8819C51.991 17.7827 52.9396 16.9105 54.1754 16.2653C55.4112 15.6233 57.0111 15.3023 58.9683 15.3023C60.3979 15.3023 61.9778 15.471 63.7146 15.8049C63.7146 16.729 63.758 17.7568 63.8415 18.8916C63.3705 18.7392 62.9931 18.6257 62.7026 18.5446C62.412 18.4668 62.0713 18.3922 61.6839 18.3275C61.2964 18.2594 60.9257 18.2107 60.5783 18.1815C60.2276 18.1491 59.9169 18.1329 59.6431 18.1329C58.925 18.1329 58.247 18.2334 57.6056 18.4312C56.9677 18.6322 56.4166 18.9402 55.959 19.352C55.498 19.767 55.154 20.263 54.9269 20.8401C54.6964 21.4173 54.5829 22.0237 54.5829 22.6624C54.5829 23.3173 54.7131 23.8977 54.9737 24.4067C55.2341 24.9158 55.6484 25.3049 56.2162 25.5707C56.784 25.8366 57.4186 25.9695 58.1166 25.9695C58.6978 25.9695 59.3324 25.8885 60.0238 25.7231L60.1341 23.661C59.7098 23.6416 59.4594 23.6318 59.3792 23.6318L58.3404 23.6416L58.4106 22.4743C58.4139 22.3479 58.4239 22.163 58.4373 21.9264C58.4506 21.6896 58.4574 21.3655 58.4574 20.9536ZM106.774 15.5571V18.4101C105.806 18.3706 104.978 18.3501 104.293 18.3501H103.608C103.511 19.4687 103.435 20.503 103.384 21.4497C103.311 22.8083 103.254 24.1279 103.217 25.4086C103.177 26.6893 103.157 27.7236 103.157 28.5147C102.088 28.5017 101.397 28.4952 101.083 28.4952C100.803 28.4952 100.051 28.5017 98.8319 28.5147C99.1592 25.4377 99.353 22.0496 99.4197 18.3501L95.2514 18.4538L95.2982 17.4001C95.3249 16.8359 95.3449 16.2199 95.3582 15.5488C97.212 15.5617 99.3696 15.5683 101.835 15.5683L104.253 15.5585H106.601L106.774 15.5571ZM106.774 26.6195L106.485 27.1465L105.674 28.5147C106.082 28.5099 106.448 28.506 106.774 28.503V26.6195ZM66.8242 15.5488C67.8396 15.5617 68.5577 15.5683 68.9752 15.5683C69.4962 15.5683 70.191 15.5617 71.0594 15.5488L70.7654 19.5854C70.7086 20.3441 70.6619 21.0574 70.6352 21.7221C70.6052 22.3868 70.5917 22.8471 70.5917 23.1001C70.5917 23.58 70.6251 23.9852 70.6986 24.3062C70.7688 24.6304 70.899 24.9028 71.0894 25.1298C71.2798 25.3534 71.5404 25.5221 71.8777 25.6356C72.2117 25.7491 72.5624 25.8074 72.9298 25.8074C73.2405 25.8074 73.5343 25.7652 73.8082 25.6842C74.0254 25.6161 74.2158 25.5221 74.386 25.3989C74.5364 25.2886 74.6666 25.1556 74.7768 25.0033C74.9138 24.825 75.0341 24.598 75.1409 24.3257C75.2444 24.0696 75.3212 23.7389 75.3747 23.3303C75.4348 22.9152 75.5117 21.9717 75.6085 20.503C75.6954 19.2515 75.7589 18.1037 75.8056 17.063C75.8457 16.0546 75.8791 15.5488 75.9124 15.5488C76.8977 15.5488 77.6727 15.5488 78.2405 15.5488H80.2278L79.7502 22.2927C79.7436 22.4192 79.7401 22.5229 79.7401 22.6072C79.7134 23.9236 79.63 24.8509 79.4897 25.3925C79.3493 25.9339 79.1156 26.404 78.7883 26.806C78.4642 27.2049 77.9867 27.5615 77.362 27.8825C76.7341 28.2034 76.0227 28.4271 75.2278 28.5601C74.4328 28.6931 73.6245 28.7612 72.8096 28.7612C72.0815 28.7612 71.3767 28.7093 70.6986 28.6087C70.0707 28.5083 69.5063 28.3591 69.0053 28.1677C68.5009 27.9732 68.0633 27.7495 67.6926 27.4869C67.3519 27.247 67.0913 27.0038 66.911 26.7509C66.7274 26.5012 66.5837 26.203 66.4802 25.8561C66.3633 25.4605 66.3031 25.0422 66.3031 24.5915C66.3031 24.4391 66.3098 24.2089 66.3232 23.9041C66.3366 23.5961 66.3666 23.1552 66.41 22.5781L66.5402 21.0574C66.5703 20.6586 66.6071 20.0718 66.6471 19.3002L66.8242 15.5488ZM81.7943 28.5147C81.9179 27.3993 82.0181 26.3975 82.0882 25.5026C82.1617 24.611 82.2252 23.5767 82.2752 22.3964C82.3286 21.2196 82.3688 19.9778 82.3955 18.6678C82.4189 17.3613 82.4323 16.3204 82.4323 15.5488C83.2472 15.5683 83.9085 15.5779 84.4095 15.5779C84.9306 15.5779 85.5685 15.5617 86.3167 15.5358C87.0683 15.5067 87.7963 15.4904 88.5079 15.4904C89.3428 15.4904 90.0876 15.5228 90.739 15.5877C91.2299 15.6298 91.6742 15.7239 92.0749 15.8633C92.4758 16.0027 92.8131 16.1713 93.0869 16.369C93.3609 16.5701 93.5913 16.7938 93.7717 17.0402C93.9554 17.2866 94.0957 17.5752 94.1993 17.9092C94.2995 18.2398 94.3496 18.5965 94.3496 18.9759C94.3496 19.4007 94.2928 19.7994 94.1825 20.169C94.0723 20.5387 93.8987 20.8889 93.6582 21.2131C93.421 21.5405 93.1204 21.8226 92.7597 22.0593C92.3989 22.296 91.8913 22.5392 91.2366 22.7855L91.7476 23.9917C91.8913 24.3289 92.0449 24.6694 92.2085 25.0195L93.5179 27.8014C93.5779 27.9214 93.6815 28.1613 93.8319 28.5147C92.7563 28.5017 92.0316 28.4952 91.6608 28.4952C91.1898 28.4952 90.4216 28.5017 89.3529 28.5147C89.2459 28.184 89.0589 27.5745 88.7817 26.6828C88.6715 26.3067 88.5779 26.0214 88.4978 25.8171C88.3408 25.3665 88.1103 24.7374 87.803 23.9269L86.7944 21.2391C87.1484 21.3006 87.4924 21.333 87.8331 21.333C88.3074 21.333 88.7416 21.2649 89.129 21.1255C89.5165 20.9861 89.8104 20.7688 90.0108 20.4771C90.2078 20.1852 90.308 19.8805 90.308 19.5562C90.308 19.2839 90.2347 19.044 90.0843 18.8397C89.934 18.6322 89.6969 18.4798 89.3728 18.3792C89.0522 18.2787 88.5546 18.2269 87.8831 18.2269C87.6528 18.2269 87.4189 18.2301 87.1717 18.2398C86.928 18.2496 86.644 18.2594 86.3167 18.2658C86.2332 19.5627 86.1564 21.145 86.0929 23.0158C86.0262 24.8833 85.9827 26.7153 85.9626 28.5147C84.8739 28.5017 84.1657 28.4952 83.8417 28.4952C83.461 28.4952 82.7796 28.5017 81.7943 28.5147Z" fill="black"/>
<path d="M25.098 15.5536L17.3473 8.02975L9.59639 15.5535L17.3471 23.0774L25.098 15.5536Z" fill="#B2DDF7"/>
<path d="M17.3472 23.0774L19.1926 24.8688L26.9435 17.345L25.098 15.5536L17.3472 23.0774Z" fill="#D9EFFD"/>
<path d="M7.75098 32.3927L17.3473 23.0774L9.59636 15.5536L4.75859e-05 24.8688L7.75098 32.3927Z" fill="#005F91"/>
<path d="M19.1925 24.8688L26.9434 32.3927L34.6942 24.8688L26.9434 17.345L19.1925 24.8688Z" fill="#D4053F"/>
<path d="M36.5396 8.02975L26.9434 17.345L34.6942 24.8688L44.2905 15.5536L36.5396 8.02975Z" fill="#E51848"/>
</g>
<defs>
<clipPath id="clip0">
<rect width="180" height="38.4" fill="white"/>
</clipPath>
</defs>
</svg>
